<svg xmlns="http://www.w3.org/2000/svg" viewBox="0 0 841.89 1190.55" width="841.89" height="1190.55" shape-rendering="geometricPrecision"><defs>  <linearGradient id="paper-wash" x1="0" y1="0" x2="0" y2="1">    <stop offset="0%" stop-color="#ffffff" stop-opacity="0.38" />    <stop offset="18%" stop-color="#ffffff" stop-opacity="0.10" />    <stop offset="100%" stop-color="#efe6cf" stop-opacity="0.14" />  </linearGradient>  <linearGradient id="edge-tone" x1="0" y1="0" x2="1" y2="0">    <stop offset="0%" stop-color="#dccfb4" stop-opacity="0.18" />    <stop offset="6%" stop-color="#dccfb4" stop-opacity="0.05" />    <stop offset="94%" stop-color="#dccfb4" stop-opacity="0.05" />    <stop offset="100%" stop-color="#dccfb4" stop-opacity="0.18" />  </linearGradient>  <linearGradient id="grid-field-wash" x1="0" y1="0" x2="0" y2="1">    <stop offset="0%" stop-color="#ffffff" stop-opacity="0.14" />    <stop offset="100%" stop-color="#eaf4fb" stop-opacity="0.22" />  </linearGradient>  <pattern id="minor-grid" x="60" y="60" width="21.60" height="21.60" patternUnits="userSpaceOnUse">    <path d="M 21.60 0 L 0 0 0 21.60" fill="none" stroke="#b8d7ea" stroke-width="0.85" stroke-opacity="0.78" />  </pattern>  <pattern id="major-grid" x="60" y="60" width="108" height="108" patternUnits="userSpaceOnUse">    <path d="M 108 0 L 0 0 0 108" fill="none" stroke="#89b6d4" stroke-width="1.15" stroke-opacity="0.86" />  </pattern></defs>  <rect width="841.89" height="1190.55" fill="#fffef5" />  <rect width="841.89" height="1190.55" fill="url(#paper-wash)" />  <rect width="841.89" height="1190.55" fill="url(#edge-tone)" opacity="0.55" />  <rect x="0" y="0" width="100%" height="22" fill="#fff7de" opacity="0.35" />  <line x1="754.66" y1="99.75" x2="758.15" y2="108.07" stroke="#d4c7ab" stroke-width="0.7" stroke-opacity="0.1" stroke-linecap="round" />  <line x1="321.02" y1="543.21" x2="329.38" y2="548" stroke="#d4c7ab" stroke-width="0.7" stroke-opacity="0.1" stroke-linecap="round" />  <line x1="156.29" y1="404.03" x2="147.47" y2="404.82" stroke="#d4c7ab" stroke-width="0.7" stroke-opacity="0.1" stroke-linecap="round" />  <line x1="794.09" y1="954.72" x2="788.48" y2="954.81" stroke="#d4c7ab" stroke-width="0.7" stroke-opacity="0.1" stroke-linecap="round" />  <line x1="812.81" y1="948.94" x2="805.05" y2="950.76" stroke="#d4c7ab" stroke-width="0.7" stroke-opacity="0.1" stroke-linecap="round" />  <line x1="758.77" y1="521.63" x2="763.95" y2="529.95" stroke="#d4c7ab" stroke-width="0.7" stroke-opacity="0.1" stroke-linecap="round" />  <line x1="280.59" y1="886.67" x2="276.23" y2="894.55" stroke="#d4c7ab" stroke-width="0.7" stroke-opacity="0.1" stroke-linecap="round" />  <line x1="548.26" y1="505.01" x2="550.91" y2="509.50" stroke="#d4c7ab" stroke-width="0.7" stroke-opacity="0.1" stroke-linecap="round" />  <line x1="286.78" y1="590.04" x2="290.28" y2="591.99" stroke="#d4c7ab" stroke-width="0.7" stroke-opacity="0.1" stroke-linecap="round" />  <line x1="153.39" y1="505.96" x2="145.08" y2="515.79" stroke="#d4c7ab" stroke-width="0.7" stroke-opacity="0.1" stroke-linecap="round" />  <line x1="597.75" y1="355.45" x2="604.02" y2="360.02" stroke="#d4c7ab" stroke-width="0.7" stroke-opacity="0.1" stroke-linecap="round" />  <line x1="184.01" y1="680.24" x2="171.57" y2="683.41" stroke="#d4c7ab" stroke-width="0.7" stroke-opacity="0.1" stroke-linecap="round" />  <line x1="753.77" y1="562.01" x2="750.51" y2="572.43" stroke="#d4c7ab" stroke-width="0.7" stroke-opacity="0.1" stroke-linecap="round" />  <line x1="497.43" y1="1081.27" x2="503.73" y2="1086.33" stroke="#d4c7ab" stroke-width="0.7" stroke-opacity="0.1" stroke-linecap="round" />  <line x1="195.74" y1="813.18" x2="202.77" y2="821.86" stroke="#d4c7ab" stroke-width="0.7" stroke-opacity="0.1" stroke-linecap="round" />  <line x1="249.37" y1="610.83" x2="254.31" y2="612.69" stroke="#d4c7ab" stroke-width="0.7" stroke-opacity="0.1" stroke-linecap="round" />  <circle cx="150.66" cy="399.96" r="0.83" fill="#d4c7ab" fill-opacity="0.08" />  <circle cx="161.54" cy="1161.22" r="1.02" fill="#d4c7ab" fill-opacity="0.08" />  <circle cx="367.76" cy="760.07" r="0.68" fill="#d4c7ab" fill-opacity="0.08" />  <circle cx="550.97" cy="503.08" r="0.55" fill="#d4c7ab" fill-opacity="0.08" />  <circle cx="17.09" cy="208.86" r="0.74" fill="#d4c7ab" fill-opacity="0.08" />  <circle cx="247.75" cy="501.60" r="0.59" fill="#d4c7ab" fill-opacity="0.08" />  <circle cx="760.85" cy="561.30" r="0.99" fill="#d4c7ab" fill-opacity="0.08" />  <circle cx="383.03" cy="270.03" r="0.94" fill="#d4c7ab" fill-opacity="0.08" />  <circle cx="432.18" cy="186.71" r="0.53" fill="#d4c7ab" fill-opacity="0.08" />  <circle cx="673.11" cy="656.87" r="0.73" fill="#d4c7ab" fill-opacity="0.08" />  <circle cx="198.68" cy="377.37" r="0.57" fill="#d4c7ab" fill-opacity="0.08" />  <circle cx="672.22" cy="42.86" r="0.51" fill="#d4c7ab" fill-opacity="0.08" />  <circle cx="212" cy="467.35" r="0.68" fill="#d4c7ab" fill-opacity="0.08" />  <circle cx="156.87" cy="56.83" r="0.58" fill="#d4c7ab" fill-opacity="0.08" />  <circle cx="576.74" cy="234.29" r="0.48" fill="#d4c7ab" fill-opacity="0.08" />  <circle cx="89.20" cy="340.83" r="0.52" fill="#d4c7ab" fill-opacity="0.08" />  <circle cx="306.15" cy="531.43" r="1.10" fill="#d4c7ab" fill-opacity="0.08" />  <circle cx="444.97" cy="866.56" r="1" fill="#d4c7ab" fill-opacity="0.08" />  <circle cx="135.04" cy="87.56" r="0.79" fill="#d4c7ab" fill-opacity="0.08" />  <circle cx="80.64" cy="213.01" r="0.80" fill="#d4c7ab" fill-opacity="0.08" />  <circle cx="479.46" cy="843.14" r="1.11" fill="#d4c7ab" fill-opacity="0.08" />  <circle cx="54.88" cy="59.80" r="0.80" fill="#d4c7ab" fill-opacity="0.08" />  <circle cx="757.47" cy="482.80" r="1.15" fill="#d4c7ab" fill-opacity="0.08" />  <circle cx="803.97" cy="145.71" r="0.45" fill="#d4c7ab" fill-opacity="0.08" />  <rect x="60" y="60" width="721.89" height="1070.55" fill="url(#grid-field-wash)" opacity="0.48" />  <rect x="60" y="60" width="721.89" height="1070.55" fill="url(#minor-grid)" />  <rect x="60" y="60" width="721.89" height="1070.55" fill="url(#major-grid)" />  <rect x="60" y="60" width="721.89" height="1070.55" fill="none" stroke="#d4e4ef" stroke-width="0.9" stroke-opacity="0.62" /></svg>