<svg xmlns="http://www.w3.org/2000/svg" viewBox="0 0 841.89 595.28" width="841.89" height="595.28"><defs>  <linearGradient id="paper-wash" x1="0" y1="0" x2="0" y2="1">    <stop offset="0%" stop-color="#ffffff" stop-opacity="0.38" />    <stop offset="18%" stop-color="#ffffff" stop-opacity="0.10" />    <stop offset="100%" stop-color="#efe6cf" stop-opacity="0.14" />  </linearGradient>  <linearGradient id="edge-tone" x1="0" y1="0" x2="1" y2="0">    <stop offset="0%" stop-color="#dccfb4" stop-opacity="0.18" />    <stop offset="6%" stop-color="#dccfb4" stop-opacity="0.05" />    <stop offset="94%" stop-color="#dccfb4" stop-opacity="0.05" />    <stop offset="100%" stop-color="#dccfb4" stop-opacity="0.18" />  </linearGradient></defs>  <rect width="841.89" height="595.28" fill="#fffef5" />  <rect width="841.89" height="595.28" fill="url(#paper-wash)" />  <rect width="841.89" height="595.28" fill="url(#edge-tone)" opacity="0.55" />  <rect x="0" y="0" width="100%" height="22" fill="#fff7de" opacity="0.35" />  <line x1="754.66" y1="49.88" x2="758.15" y2="58.20" stroke="#d4c7ab" stroke-width="0.7" stroke-opacity="0.11" stroke-linecap="round" />  <line x1="321.02" y1="271.61" x2="329.38" y2="276.40" stroke="#d4c7ab" stroke-width="0.7" stroke-opacity="0.11" stroke-linecap="round" />  <line x1="156.29" y1="202.02" x2="147.47" y2="202.81" stroke="#d4c7ab" stroke-width="0.7" stroke-opacity="0.11" stroke-linecap="round" />  <line x1="794.09" y1="477.37" x2="788.48" y2="477.45" stroke="#d4c7ab" stroke-width="0.7" stroke-opacity="0.11" stroke-linecap="round" />  <line x1="812.81" y1="474.48" x2="805.05" y2="476.29" stroke="#d4c7ab" stroke-width="0.7" stroke-opacity="0.11" stroke-linecap="round" />  <line x1="758.77" y1="260.82" x2="763.95" y2="269.13" stroke="#d4c7ab" stroke-width="0.7" stroke-opacity="0.11" stroke-linecap="round" />  <line x1="280.59" y1="443.34" x2="276.23" y2="451.22" stroke="#d4c7ab" stroke-width="0.7" stroke-opacity="0.11" stroke-linecap="round" />  <line x1="548.26" y1="252.50" x2="550.91" y2="257" stroke="#d4c7ab" stroke-width="0.7" stroke-opacity="0.11" stroke-linecap="round" />  <line x1="286.78" y1="295.02" x2="290.28" y2="296.97" stroke="#d4c7ab" stroke-width="0.7" stroke-opacity="0.11" stroke-linecap="round" />  <line x1="153.39" y1="252.98" x2="145.08" y2="262.81" stroke="#d4c7ab" stroke-width="0.7" stroke-opacity="0.11" stroke-linecap="round" />  <line x1="597.75" y1="177.73" x2="604.02" y2="182.30" stroke="#d4c7ab" stroke-width="0.7" stroke-opacity="0.11" stroke-linecap="round" />  <line x1="184.01" y1="340.12" x2="171.57" y2="343.29" stroke="#d4c7ab" stroke-width="0.7" stroke-opacity="0.11" stroke-linecap="round" />  <line x1="753.77" y1="281.01" x2="750.51" y2="291.42" stroke="#d4c7ab" stroke-width="0.7" stroke-opacity="0.11" stroke-linecap="round" />  <line x1="497.43" y1="540.64" x2="503.73" y2="545.70" stroke="#d4c7ab" stroke-width="0.7" stroke-opacity="0.11" stroke-linecap="round" />  <line x1="195.74" y1="406.60" x2="202.77" y2="415.27" stroke="#d4c7ab" stroke-width="0.7" stroke-opacity="0.11" stroke-linecap="round" />  <line x1="249.37" y1="305.42" x2="254.31" y2="307.28" stroke="#d4c7ab" stroke-width="0.7" stroke-opacity="0.11" stroke-linecap="round" />  <line x1="115.78" y1="186.96" x2="111.59" y2="189.77" stroke="#d4c7ab" stroke-width="0.7" stroke-opacity="0.11" stroke-linecap="round" />  <line x1="667.85" y1="327.80" x2="660.81" y2="330.77" stroke="#d4c7ab" stroke-width="0.7" stroke-opacity="0.11" stroke-linecap="round" />  <circle cx="150.66" cy="199.98" r="0.83" fill="#d4c7ab" fill-opacity="0.08" />  <circle cx="161.54" cy="580.62" r="1.02" fill="#d4c7ab" fill-opacity="0.08" />  <circle cx="367.76" cy="380.04" r="0.68" fill="#d4c7ab" fill-opacity="0.08" />  <circle cx="550.97" cy="251.54" r="0.55" fill="#d4c7ab" fill-opacity="0.08" />  <circle cx="17.09" cy="104.43" r="0.74" fill="#d4c7ab" fill-opacity="0.08" />  <circle cx="247.75" cy="250.80" r="0.59" fill="#d4c7ab" fill-opacity="0.08" />  <circle cx="760.85" cy="280.65" r="0.99" fill="#d4c7ab" fill-opacity="0.08" />  <circle cx="383.03" cy="135.02" r="0.94" fill="#d4c7ab" fill-opacity="0.08" />  <circle cx="432.18" cy="93.36" r="0.53" fill="#d4c7ab" fill-opacity="0.08" />  <circle cx="673.11" cy="328.44" r="0.73" fill="#d4c7ab" fill-opacity="0.08" />  <circle cx="198.68" cy="188.68" r="0.57" fill="#d4c7ab" fill-opacity="0.08" />  <circle cx="672.22" cy="21.43" r="0.51" fill="#d4c7ab" fill-opacity="0.08" />  <circle cx="212" cy="233.68" r="0.68" fill="#d4c7ab" fill-opacity="0.08" />  <circle cx="156.87" cy="28.41" r="0.58" fill="#d4c7ab" fill-opacity="0.08" />  <circle cx="576.74" cy="117.15" r="0.48" fill="#d4c7ab" fill-opacity="0.08" />  <circle cx="89.20" cy="170.42" r="0.52" fill="#d4c7ab" fill-opacity="0.08" />  <circle cx="306.15" cy="265.72" r="1.10" fill="#d4c7ab" fill-opacity="0.08" />  <circle cx="444.97" cy="433.29" r="1" fill="#d4c7ab" fill-opacity="0.08" />  <circle cx="135.04" cy="43.78" r="0.79" fill="#d4c7ab" fill-opacity="0.08" />  <circle cx="80.64" cy="106.50" r="0.80" fill="#d4c7ab" fill-opacity="0.08" />  <circle cx="479.46" cy="421.57" r="1.11" fill="#d4c7ab" fill-opacity="0.08" />  <circle cx="54.88" cy="29.90" r="0.80" fill="#d4c7ab" fill-opacity="0.08" />  <circle cx="757.47" cy="241.40" r="1.15" fill="#d4c7ab" fill-opacity="0.08" />  <circle cx="803.97" cy="72.86" r="0.45" fill="#d4c7ab" fill-opacity="0.08" />  <circle cx="185.97" cy="545.87" r="0.64" fill="#d4c7ab" fill-opacity="0.08" />  <circle cx="642.93" cy="22.46" r="0.85" fill="#d4c7ab" fill-opacity="0.08" />  <circle cx="669.72" cy="483.28" r="0.59" fill="#d4c7ab" fill-opacity="0.08" />  <circle cx="638.75" cy="506.75" r="0.51" fill="#d4c7ab" fill-opacity="0.08" />  <line x1="0" y1="60" x2="841.89" y2="60" stroke="#a8d4f0" stroke-width="1.1" stroke-opacity="0.72" />  <line x1="18" y1="60" x2="781.89" y2="60" stroke="#ffffff" stroke-width="0.55" stroke-opacity="0.16" />  <line x1="0" y1="103.20" x2="841.89" y2="103.20" stroke="#a8d4f0" stroke-width="1.1" stroke-opacity="0.72" />  <line x1="18" y1="103.20" x2="781.89" y2="103.20" stroke="#ffffff" stroke-width="0.55" stroke-opacity="0.16" />  <line x1="0" y1="146.40" x2="841.89" y2="146.40" stroke="#a8d4f0" stroke-width="1.1" stroke-opacity="0.72" />  <line x1="18" y1="146.40" x2="781.89" y2="146.40" stroke="#ffffff" stroke-width="0.55" stroke-opacity="0.16" />  <line x1="0" y1="189.60" x2="841.89" y2="189.60" stroke="#a8d4f0" stroke-width="1.1" stroke-opacity="0.72" />  <line x1="18" y1="189.60" x2="781.89" y2="189.60" stroke="#ffffff" stroke-width="0.55" stroke-opacity="0.16" />  <line x1="0" y1="232.80" x2="841.89" y2="232.80" stroke="#a8d4f0" stroke-width="1.1" stroke-opacity="0.72" />  <line x1="18" y1="232.80" x2="781.89" y2="232.80" stroke="#ffffff" stroke-width="0.55" stroke-opacity="0.16" />  <line x1="0" y1="276" x2="841.89" y2="276" stroke="#a8d4f0" stroke-width="1.1" stroke-opacity="0.72" />  <line x1="18" y1="276" x2="781.89" y2="276" stroke="#ffffff" stroke-width="0.55" stroke-opacity="0.16" />  <line x1="0" y1="319.20" x2="841.89" y2="319.20" stroke="#a8d4f0" stroke-width="1.1" stroke-opacity="0.72" />  <line x1="18" y1="319.20" x2="781.89" y2="319.20" stroke="#ffffff" stroke-width="0.55" stroke-opacity="0.16" />  <line x1="0" y1="362.40" x2="841.89" y2="362.40" stroke="#a8d4f0" stroke-width="1.1" stroke-opacity="0.72" />  <line x1="18" y1="362.40" x2="781.89" y2="362.40" stroke="#ffffff" stroke-width="0.55" stroke-opacity="0.16" />  <line x1="0" y1="405.60" x2="841.89" y2="405.60" stroke="#a8d4f0" stroke-width="1.1" stroke-opacity="0.72" />  <line x1="18" y1="405.60" x2="781.89" y2="405.60" stroke="#ffffff" stroke-width="0.55" stroke-opacity="0.16" />  <line x1="0" y1="448.80" x2="841.89" y2="448.80" stroke="#a8d4f0" stroke-width="1.1" stroke-opacity="0.72" />  <line x1="18" y1="448.80" x2="781.89" y2="448.80" stroke="#ffffff" stroke-width="0.55" stroke-opacity="0.16" />  <line x1="0" y1="492" x2="841.89" y2="492" stroke="#a8d4f0" stroke-width="1.1" stroke-opacity="0.72" />  <line x1="18" y1="492" x2="781.89" y2="492" stroke="#ffffff" stroke-width="0.55" stroke-opacity="0.16" />  <line x1="0" y1="535.20" x2="841.89" y2="535.20" stroke="#a8d4f0" stroke-width="1.1" stroke-opacity="0.72" />  <line x1="18" y1="535.20" x2="781.89" y2="535.20" stroke="#ffffff" stroke-width="0.55" stroke-opacity="0.16" />  <line x1="0" y1="578.40" x2="841.89" y2="578.40" stroke="#a8d4f0" stroke-width="1.1" stroke-opacity="0.72" />  <line x1="18" y1="578.40" x2="781.89" y2="578.40" stroke="#ffffff" stroke-width="0.55" stroke-opacity="0.16" /></svg>
