<svg xmlns="http://www.w3.org/2000/svg" viewBox="0 0 841.89 1190.55" width="841.89" height="1190.55" shape-rendering="geometricPrecision">  <rect width="841.89" height="1190.55" fill="#ffffff" />  <line x1="0" y1="60" x2="841.89" y2="60" stroke="#a9becd" stroke-width="1.30" stroke-opacity="0.85" />  <line x1="0" y1="103.20" x2="841.89" y2="103.20" stroke="#a9becd" stroke-width="1.30" stroke-opacity="0.85" />  <line x1="0" y1="146.40" x2="841.89" y2="146.40" stroke="#a9becd" stroke-width="1.30" stroke-opacity="0.85" />  <line x1="0" y1="189.60" x2="841.89" y2="189.60" stroke="#a9becd" stroke-width="1.30" stroke-opacity="0.85" />  <line x1="0" y1="232.80" x2="841.89" y2="232.80" stroke="#a9becd" stroke-width="1.30" stroke-opacity="0.85" />  <line x1="0" y1="276" x2="841.89" y2="276" stroke="#a9becd" stroke-width="1.30" stroke-opacity="0.85" />  <line x1="0" y1="319.20" x2="841.89" y2="319.20" stroke="#a9becd" stroke-width="1.30" stroke-opacity="0.85" />  <line x1="0" y1="362.40" x2="841.89" y2="362.40" stroke="#a9becd" stroke-width="1.30" stroke-opacity="0.85" />  <line x1="0" y1="405.60" x2="841.89" y2="405.60" stroke="#a9becd" stroke-width="1.30" stroke-opacity="0.85" />  <line x1="0" y1="448.80" x2="841.89" y2="448.80" stroke="#a9becd" stroke-width="1.30" stroke-opacity="0.85" />  <line x1="0" y1="492" x2="841.89" y2="492" stroke="#a9becd" stroke-width="1.30" stroke-opacity="0.85" />  <line x1="0" y1="535.20" x2="841.89" y2="535.20" stroke="#a9becd" stroke-width="1.30" stroke-opacity="0.85" />  <line x1="0" y1="578.40" x2="841.89" y2="578.40" stroke="#a9becd" stroke-width="1.30" stroke-opacity="0.85" />  <line x1="0" y1="621.60" x2="841.89" y2="621.60" stroke="#a9becd" stroke-width="1.30" stroke-opacity="0.85" />  <line x1="0" y1="664.80" x2="841.89" y2="664.80" stroke="#a9becd" stroke-width="1.30" stroke-opacity="0.85" />  <line x1="0" y1="708" x2="841.89" y2="708" stroke="#a9becd" stroke-width="1.30" stroke-opacity="0.85" />  <line x1="0" y1="751.20" x2="841.89" y2="751.20" stroke="#a9becd" stroke-width="1.30" stroke-opacity="0.85" />  <line x1="0" y1="794.40" x2="841.89" y2="794.40" stroke="#a9becd" stroke-width="1.30" stroke-opacity="0.85" />  <line x1="0" y1="837.60" x2="841.89" y2="837.60" stroke="#a9becd" stroke-width="1.30" stroke-opacity="0.85" />  <line x1="0" y1="880.80" x2="841.89" y2="880.80" stroke="#a9becd" stroke-width="1.30" stroke-opacity="0.85" />  <line x1="0" y1="924" x2="841.89" y2="924" stroke="#a9becd" stroke-width="1.30" stroke-opacity="0.85" />  <line x1="0" y1="967.20" x2="841.89" y2="967.20" stroke="#a9becd" stroke-width="1.30" stroke-opacity="0.85" />  <line x1="0" y1="1010.40" x2="841.89" y2="1010.40" stroke="#a9becd" stroke-width="1.30" stroke-opacity="0.85" />  <line x1="0" y1="1053.60" x2="841.89" y2="1053.60" stroke="#a9becd" stroke-width="1.30" stroke-opacity="0.85" />  <line x1="0" y1="1096.80" x2="841.89" y2="1096.80" stroke="#a9becd" stroke-width="1.30" stroke-opacity="0.85" />  <line x1="0" y1="1140" x2="841.89" y2="1140" stroke="#a9becd" stroke-width="1.30" stroke-opacity="0.85" /></svg>