<svg xmlns="http://www.w3.org/2000/svg" viewBox="0 0 841.89 595.28" width="841.89" height="595.28" shape-rendering="geometricPrecision">  <rect width="841.89" height="595.28" fill="#ffffff" />  <line x1="0" y1="85" x2="841.89" y2="85" stroke="#a9becd" stroke-width="1.20" stroke-opacity="0.85" />  <line x1="0" y1="103.14" x2="841.89" y2="103.14" stroke="#a9becd" stroke-width="1.20" stroke-opacity="0.85" />  <line x1="0" y1="121.29" x2="841.89" y2="121.29" stroke="#a9becd" stroke-width="1.20" stroke-opacity="0.85" />  <line x1="0" y1="139.43" x2="841.89" y2="139.43" stroke="#a9becd" stroke-width="1.20" stroke-opacity="0.85" />  <line x1="0" y1="157.58" x2="841.89" y2="157.58" stroke="#a9becd" stroke-width="1.20" stroke-opacity="0.85" />  <line x1="0" y1="175.72" x2="841.89" y2="175.72" stroke="#a9becd" stroke-width="1.20" stroke-opacity="0.85" />  <line x1="0" y1="193.86" x2="841.89" y2="193.86" stroke="#a9becd" stroke-width="1.20" stroke-opacity="0.85" />  <line x1="0" y1="212.01" x2="841.89" y2="212.01" stroke="#a9becd" stroke-width="1.20" stroke-opacity="0.85" />  <line x1="0" y1="230.15" x2="841.89" y2="230.15" stroke="#a9becd" stroke-width="1.20" stroke-opacity="0.85" />  <line x1="0" y1="248.30" x2="841.89" y2="248.30" stroke="#a9becd" stroke-width="1.20" stroke-opacity="0.85" />  <line x1="0" y1="266.44" x2="841.89" y2="266.44" stroke="#a9becd" stroke-width="1.20" stroke-opacity="0.85" />  <line x1="0" y1="284.58" x2="841.89" y2="284.58" stroke="#a9becd" stroke-width="1.20" stroke-opacity="0.85" />  <line x1="0" y1="302.73" x2="841.89" y2="302.73" stroke="#a9becd" stroke-width="1.20" stroke-opacity="0.85" />  <line x1="0" y1="320.87" x2="841.89" y2="320.87" stroke="#a9becd" stroke-width="1.20" stroke-opacity="0.85" />  <line x1="0" y1="339.02" x2="841.89" y2="339.02" stroke="#a9becd" stroke-width="1.20" stroke-opacity="0.85" />  <line x1="0" y1="357.16" x2="841.89" y2="357.16" stroke="#a9becd" stroke-width="1.20" stroke-opacity="0.85" />  <line x1="0" y1="375.30" x2="841.89" y2="375.30" stroke="#a9becd" stroke-width="1.20" stroke-opacity="0.85" />  <line x1="0" y1="393.45" x2="841.89" y2="393.45" stroke="#a9becd" stroke-width="1.20" stroke-opacity="0.85" />  <line x1="0" y1="411.59" x2="841.89" y2="411.59" stroke="#a9becd" stroke-width="1.20" stroke-opacity="0.85" />  <line x1="0" y1="429.74" x2="841.89" y2="429.74" stroke="#a9becd" stroke-width="1.20" stroke-opacity="0.85" />  <line x1="0" y1="447.88" x2="841.89" y2="447.88" stroke="#a9becd" stroke-width="1.20" stroke-opacity="0.85" />  <line x1="0" y1="466.02" x2="841.89" y2="466.02" stroke="#a9becd" stroke-width="1.20" stroke-opacity="0.85" />  <line x1="0" y1="484.17" x2="841.89" y2="484.17" stroke="#a9becd" stroke-width="1.20" stroke-opacity="0.85" />  <line x1="0" y1="502.31" x2="841.89" y2="502.31" stroke="#a9becd" stroke-width="1.20" stroke-opacity="0.85" />  <line x1="0" y1="520.46" x2="841.89" y2="520.46" stroke="#a9becd" stroke-width="1.20" stroke-opacity="0.85" />  <line x1="0" y1="538.60" x2="841.89" y2="538.60" stroke="#a9becd" stroke-width="1.20" stroke-opacity="0.85" />  <line x1="0" y1="556.74" x2="841.89" y2="556.74" stroke="#a9becd" stroke-width="1.20" stroke-opacity="0.85" /></svg>