<svg xmlns="http://www.w3.org/2000/svg" viewBox="0 0 595.28 841.89" width="595.28" height="841.89"><defs>  <linearGradient id="paper-wash" x1="0" y1="0" x2="0" y2="1">    <stop offset="0%" stop-color="#ffffff" stop-opacity="0.38" />    <stop offset="18%" stop-color="#ffffff" stop-opacity="0.10" />    <stop offset="100%" stop-color="#efe6cf" stop-opacity="0.14" />  </linearGradient>  <linearGradient id="edge-tone" x1="0" y1="0" x2="1" y2="0">    <stop offset="0%" stop-color="#dccfb4" stop-opacity="0.18" />    <stop offset="6%" stop-color="#dccfb4" stop-opacity="0.05" />    <stop offset="94%" stop-color="#dccfb4" stop-opacity="0.05" />    <stop offset="100%" stop-color="#dccfb4" stop-opacity="0.18" />  </linearGradient></defs>  <rect width="595.28" height="841.89" fill="#fffef5" />  <rect width="595.28" height="841.89" fill="url(#paper-wash)" />  <rect width="595.28" height="841.89" fill="url(#edge-tone)" opacity="0.55" />  <rect x="0" y="0" width="100%" height="22" fill="#fff7de" opacity="0.35" />  <line x1="533.60" y1="70.54" x2="537.09" y2="78.86" stroke="#d4c7ab" stroke-width="0.7" stroke-opacity="0.11" stroke-linecap="round" />  <line x1="226.99" y1="384.13" x2="235.35" y2="388.92" stroke="#d4c7ab" stroke-width="0.7" stroke-opacity="0.11" stroke-linecap="round" />  <line x1="110.51" y1="285.71" x2="101.69" y2="286.50" stroke="#d4c7ab" stroke-width="0.7" stroke-opacity="0.11" stroke-linecap="round" />  <line x1="561.48" y1="675.13" x2="555.87" y2="675.21" stroke="#d4c7ab" stroke-width="0.7" stroke-opacity="0.11" stroke-linecap="round" />  <line x1="574.72" y1="671.04" x2="566.95" y2="672.86" stroke="#d4c7ab" stroke-width="0.7" stroke-opacity="0.11" stroke-linecap="round" />  <line x1="536.51" y1="368.87" x2="541.69" y2="377.18" stroke="#d4c7ab" stroke-width="0.7" stroke-opacity="0.11" stroke-linecap="round" />  <line x1="198.40" y1="627" x2="194.04" y2="634.88" stroke="#d4c7ab" stroke-width="0.7" stroke-opacity="0.11" stroke-linecap="round" />  <line x1="387.66" y1="357.11" x2="390.31" y2="361.61" stroke="#d4c7ab" stroke-width="0.7" stroke-opacity="0.11" stroke-linecap="round" />  <line x1="202.78" y1="417.24" x2="206.27" y2="419.19" stroke="#d4c7ab" stroke-width="0.7" stroke-opacity="0.11" stroke-linecap="round" />  <line x1="108.45" y1="357.79" x2="100.15" y2="367.61" stroke="#d4c7ab" stroke-width="0.7" stroke-opacity="0.11" stroke-linecap="round" />  <line x1="422.65" y1="251.35" x2="428.92" y2="255.93" stroke="#d4c7ab" stroke-width="0.7" stroke-opacity="0.11" stroke-linecap="round" />  <line x1="130.11" y1="481.03" x2="117.67" y2="484.20" stroke="#d4c7ab" stroke-width="0.7" stroke-opacity="0.11" stroke-linecap="round" />  <line x1="532.97" y1="397.42" x2="529.71" y2="407.84" stroke="#d4c7ab" stroke-width="0.7" stroke-opacity="0.11" stroke-linecap="round" />  <line x1="351.72" y1="764.61" x2="358.02" y2="769.67" stroke="#d4c7ab" stroke-width="0.7" stroke-opacity="0.11" stroke-linecap="round" />  <line x1="138.41" y1="575.04" x2="145.44" y2="583.71" stroke="#d4c7ab" stroke-width="0.7" stroke-opacity="0.11" stroke-linecap="round" />  <line x1="176.32" y1="431.95" x2="181.27" y2="433.80" stroke="#d4c7ab" stroke-width="0.7" stroke-opacity="0.11" stroke-linecap="round" />  <line x1="81.86" y1="264.41" x2="77.68" y2="267.22" stroke="#d4c7ab" stroke-width="0.7" stroke-opacity="0.11" stroke-linecap="round" />  <line x1="472.22" y1="463.59" x2="465.18" y2="466.57" stroke="#d4c7ab" stroke-width="0.7" stroke-opacity="0.11" stroke-linecap="round" />  <circle cx="106.53" cy="282.83" r="0.83" fill="#d4c7ab" fill-opacity="0.08" />  <circle cx="114.22" cy="821.15" r="1.02" fill="#d4c7ab" fill-opacity="0.08" />  <circle cx="260.03" cy="537.48" r="0.68" fill="#d4c7ab" fill-opacity="0.08" />  <circle cx="389.58" cy="355.75" r="0.55" fill="#d4c7ab" fill-opacity="0.08" />  <circle cx="12.09" cy="147.69" r="0.74" fill="#d4c7ab" fill-opacity="0.08" />  <circle cx="175.18" cy="354.71" r="0.59" fill="#d4c7ab" fill-opacity="0.08" />  <circle cx="537.98" cy="396.92" r="0.99" fill="#d4c7ab" fill-opacity="0.08" />  <circle cx="270.83" cy="190.95" r="0.94" fill="#d4c7ab" fill-opacity="0.08" />  <circle cx="305.58" cy="132.03" r="0.53" fill="#d4c7ab" fill-opacity="0.08" />  <circle cx="475.94" cy="464.50" r="0.73" fill="#d4c7ab" fill-opacity="0.08" />  <circle cx="140.48" cy="266.85" r="0.57" fill="#d4c7ab" fill-opacity="0.08" />  <circle cx="475.31" cy="30.31" r="0.51" fill="#d4c7ab" fill-opacity="0.08" />  <circle cx="149.90" cy="330.48" r="0.68" fill="#d4c7ab" fill-opacity="0.08" />  <circle cx="110.92" cy="40.19" r="0.58" fill="#d4c7ab" fill-opacity="0.08" />  <circle cx="407.80" cy="165.68" r="0.48" fill="#d4c7ab" fill-opacity="0.08" />  <circle cx="63.07" cy="241.02" r="0.52" fill="#d4c7ab" fill-opacity="0.08" />  <circle cx="216.47" cy="375.80" r="1.10" fill="#d4c7ab" fill-opacity="0.08" />  <circle cx="314.62" cy="612.79" r="1" fill="#d4c7ab" fill-opacity="0.08" />  <circle cx="95.48" cy="61.91" r="0.79" fill="#d4c7ab" fill-opacity="0.08" />  <circle cx="57.02" cy="150.63" r="0.80" fill="#d4c7ab" fill-opacity="0.08" />  <circle cx="339.02" cy="596.22" r="1.11" fill="#d4c7ab" fill-opacity="0.08" />  <circle cx="38.80" cy="42.29" r="0.80" fill="#d4c7ab" fill-opacity="0.08" />  <circle cx="535.59" cy="341.41" r="1.15" fill="#d4c7ab" fill-opacity="0.08" />  <circle cx="568.47" cy="103.04" r="0.45" fill="#d4c7ab" fill-opacity="0.08" />  <circle cx="131.49" cy="772.01" r="0.64" fill="#d4c7ab" fill-opacity="0.08" />  <circle cx="454.60" cy="31.76" r="0.85" fill="#d4c7ab" fill-opacity="0.08" />  <circle cx="473.54" cy="683.49" r="0.59" fill="#d4c7ab" fill-opacity="0.08" />  <circle cx="451.65" cy="716.68" r="0.51" fill="#d4c7ab" fill-opacity="0.08" />  <line x1="0" y1="60" x2="595.28" y2="60" stroke="#a8d4f0" stroke-width="1.1" stroke-opacity="0.72" />  <line x1="18" y1="60" x2="535.28" y2="60" stroke="#ffffff" stroke-width="0.55" stroke-opacity="0.16" />  <line x1="0" y1="103.20" x2="595.28" y2="103.20" stroke="#a8d4f0" stroke-width="1.1" stroke-opacity="0.72" />  <line x1="18" y1="103.20" x2="535.28" y2="103.20" stroke="#ffffff" stroke-width="0.55" stroke-opacity="0.16" />  <line x1="0" y1="146.40" x2="595.28" y2="146.40" stroke="#a8d4f0" stroke-width="1.1" stroke-opacity="0.72" />  <line x1="18" y1="146.40" x2="535.28" y2="146.40" stroke="#ffffff" stroke-width="0.55" stroke-opacity="0.16" />  <line x1="0" y1="189.60" x2="595.28" y2="189.60" stroke="#a8d4f0" stroke-width="1.1" stroke-opacity="0.72" />  <line x1="18" y1="189.60" x2="535.28" y2="189.60" stroke="#ffffff" stroke-width="0.55" stroke-opacity="0.16" />  <line x1="0" y1="232.80" x2="595.28" y2="232.80" stroke="#a8d4f0" stroke-width="1.1" stroke-opacity="0.72" />  <line x1="18" y1="232.80" x2="535.28" y2="232.80" stroke="#ffffff" stroke-width="0.55" stroke-opacity="0.16" />  <line x1="0" y1="276" x2="595.28" y2="276" stroke="#a8d4f0" stroke-width="1.1" stroke-opacity="0.72" />  <line x1="18" y1="276" x2="535.28" y2="276" stroke="#ffffff" stroke-width="0.55" stroke-opacity="0.16" />  <line x1="0" y1="319.20" x2="595.28" y2="319.20" stroke="#a8d4f0" stroke-width="1.1" stroke-opacity="0.72" />  <line x1="18" y1="319.20" x2="535.28" y2="319.20" stroke="#ffffff" stroke-width="0.55" stroke-opacity="0.16" />  <line x1="0" y1="362.40" x2="595.28" y2="362.40" stroke="#a8d4f0" stroke-width="1.1" stroke-opacity="0.72" />  <line x1="18" y1="362.40" x2="535.28" y2="362.40" stroke="#ffffff" stroke-width="0.55" stroke-opacity="0.16" />  <line x1="0" y1="405.60" x2="595.28" y2="405.60" stroke="#a8d4f0" stroke-width="1.1" stroke-opacity="0.72" />  <line x1="18" y1="405.60" x2="535.28" y2="405.60" stroke="#ffffff" stroke-width="0.55" stroke-opacity="0.16" />  <line x1="0" y1="448.80" x2="595.28" y2="448.80" stroke="#a8d4f0" stroke-width="1.1" stroke-opacity="0.72" />  <line x1="18" y1="448.80" x2="535.28" y2="448.80" stroke="#ffffff" stroke-width="0.55" stroke-opacity="0.16" />  <line x1="0" y1="492" x2="595.28" y2="492" stroke="#a8d4f0" stroke-width="1.1" stroke-opacity="0.72" />  <line x1="18" y1="492" x2="535.28" y2="492" stroke="#ffffff" stroke-width="0.55" stroke-opacity="0.16" />  <line x1="0" y1="535.20" x2="595.28" y2="535.20" stroke="#a8d4f0" stroke-width="1.1" stroke-opacity="0.72" />  <line x1="18" y1="535.20" x2="535.28" y2="535.20" stroke="#ffffff" stroke-width="0.55" stroke-opacity="0.16" />  <line x1="0" y1="578.40" x2="595.28" y2="578.40" stroke="#a8d4f0" stroke-width="1.1" stroke-opacity="0.72" />  <line x1="18" y1="578.40" x2="535.28" y2="578.40" stroke="#ffffff" stroke-width="0.55" stroke-opacity="0.16" />  <line x1="0" y1="621.60" x2="595.28" y2="621.60" stroke="#a8d4f0" stroke-width="1.1" stroke-opacity="0.72" />  <line x1="18" y1="621.60" x2="535.28" y2="621.60" stroke="#ffffff" stroke-width="0.55" stroke-opacity="0.16" />  <line x1="0" y1="664.80" x2="595.28" y2="664.80" stroke="#a8d4f0" stroke-width="1.1" stroke-opacity="0.72" />  <line x1="18" y1="664.80" x2="535.28" y2="664.80" stroke="#ffffff" stroke-width="0.55" stroke-opacity="0.16" />  <line x1="0" y1="708" x2="595.28" y2="708" stroke="#a8d4f0" stroke-width="1.1" stroke-opacity="0.72" />  <line x1="18" y1="708" x2="535.28" y2="708" stroke="#ffffff" stroke-width="0.55" stroke-opacity="0.16" />  <line x1="0" y1="751.20" x2="595.28" y2="751.20" stroke="#a8d4f0" stroke-width="1.1" stroke-opacity="0.72" />  <line x1="18" y1="751.20" x2="535.28" y2="751.20" stroke="#ffffff" stroke-width="0.55" stroke-opacity="0.16" />  <line x1="0" y1="794.40" x2="595.28" y2="794.40" stroke="#a8d4f0" stroke-width="1.1" stroke-opacity="0.72" />  <line x1="18" y1="794.40" x2="535.28" y2="794.40" stroke="#ffffff" stroke-width="0.55" stroke-opacity="0.16" />  <line x1="50" y1="44.88" x2="50" y2="801.33" stroke="#e6a1a8" stroke-width="1.6" stroke-opacity="0.9" />  <line x1="51.60" y1="44.88" x2="51.60" y2="801.33" stroke="#f7d9dd" stroke-width="0.8" stroke-opacity="0.7" /></svg>
