<svg xmlns="http://www.w3.org/2000/svg" viewBox="0 0 1190.55 841.89" width="1190.55" height="841.89"><defs>  <linearGradient id="paper-wash" x1="0" y1="0" x2="0" y2="1">    <stop offset="0%" stop-color="#ffffff" stop-opacity="0.38" />    <stop offset="18%" stop-color="#ffffff" stop-opacity="0.10" />    <stop offset="100%" stop-color="#efe6cf" stop-opacity="0.14" />  </linearGradient>  <linearGradient id="edge-tone" x1="0" y1="0" x2="1" y2="0">    <stop offset="0%" stop-color="#dccfb4" stop-opacity="0.18" />    <stop offset="6%" stop-color="#dccfb4" stop-opacity="0.05" />    <stop offset="94%" stop-color="#dccfb4" stop-opacity="0.05" />    <stop offset="100%" stop-color="#dccfb4" stop-opacity="0.18" />  </linearGradient></defs>  <rect width="1190.55" height="841.89" fill="#fffef5" />  <rect width="1190.55" height="841.89" fill="url(#paper-wash)" />  <rect width="1190.55" height="841.89" fill="url(#edge-tone)" opacity="0.55" />  <rect x="0" y="0" width="100%" height="22" fill="#fff7de" opacity="0.35" />  <line x1="1067.20" y1="70.54" x2="1070.68" y2="78.86" stroke="#d4c7ab" stroke-width="0.7" stroke-opacity="0.11" stroke-linecap="round" />  <line x1="453.97" y1="384.13" x2="462.33" y2="388.92" stroke="#d4c7ab" stroke-width="0.7" stroke-opacity="0.11" stroke-linecap="round" />  <line x1="221.02" y1="285.71" x2="212.20" y2="286.50" stroke="#d4c7ab" stroke-width="0.7" stroke-opacity="0.11" stroke-linecap="round" />  <line x1="1122.95" y1="675.13" x2="1117.34" y2="675.21" stroke="#d4c7ab" stroke-width="0.7" stroke-opacity="0.11" stroke-linecap="round" />  <line x1="1149.43" y1="671.04" x2="1141.66" y2="672.86" stroke="#d4c7ab" stroke-width="0.7" stroke-opacity="0.11" stroke-linecap="round" />  <line x1="1073" y1="368.87" x2="1078.18" y2="377.18" stroke="#d4c7ab" stroke-width="0.7" stroke-opacity="0.11" stroke-linecap="round" />  <line x1="396.79" y1="627" x2="392.43" y2="634.88" stroke="#d4c7ab" stroke-width="0.7" stroke-opacity="0.11" stroke-linecap="round" />  <line x1="775.31" y1="357.11" x2="777.97" y2="361.61" stroke="#d4c7ab" stroke-width="0.7" stroke-opacity="0.11" stroke-linecap="round" />  <line x1="405.55" y1="417.24" x2="409.05" y2="419.19" stroke="#d4c7ab" stroke-width="0.7" stroke-opacity="0.11" stroke-linecap="round" />  <line x1="216.91" y1="357.79" x2="208.60" y2="367.61" stroke="#d4c7ab" stroke-width="0.7" stroke-opacity="0.11" stroke-linecap="round" />  <line x1="845.29" y1="251.35" x2="851.57" y2="255.93" stroke="#d4c7ab" stroke-width="0.7" stroke-opacity="0.11" stroke-linecap="round" />  <line x1="260.21" y1="481.03" x2="247.77" y2="484.20" stroke="#d4c7ab" stroke-width="0.7" stroke-opacity="0.11" stroke-linecap="round" />  <line x1="1065.94" y1="397.42" x2="1062.68" y2="407.84" stroke="#d4c7ab" stroke-width="0.7" stroke-opacity="0.11" stroke-linecap="round" />  <line x1="703.44" y1="764.61" x2="709.74" y2="769.67" stroke="#d4c7ab" stroke-width="0.7" stroke-opacity="0.11" stroke-linecap="round" />  <line x1="276.81" y1="575.04" x2="283.84" y2="583.71" stroke="#d4c7ab" stroke-width="0.7" stroke-opacity="0.11" stroke-linecap="round" />  <line x1="352.64" y1="431.95" x2="357.59" y2="433.80" stroke="#d4c7ab" stroke-width="0.7" stroke-opacity="0.11" stroke-linecap="round" />  <line x1="163.73" y1="264.41" x2="159.54" y2="267.22" stroke="#d4c7ab" stroke-width="0.7" stroke-opacity="0.11" stroke-linecap="round" />  <line x1="944.44" y1="463.59" x2="937.40" y2="466.57" stroke="#d4c7ab" stroke-width="0.7" stroke-opacity="0.11" stroke-linecap="round" />  <circle cx="213.06" cy="282.83" r="0.83" fill="#d4c7ab" fill-opacity="0.08" />  <circle cx="228.45" cy="821.15" r="1.02" fill="#d4c7ab" fill-opacity="0.08" />  <circle cx="520.07" cy="537.48" r="0.68" fill="#d4c7ab" fill-opacity="0.08" />  <circle cx="779.15" cy="355.75" r="0.55" fill="#d4c7ab" fill-opacity="0.08" />  <circle cx="24.17" cy="147.69" r="0.74" fill="#d4c7ab" fill-opacity="0.08" />  <circle cx="350.35" cy="354.71" r="0.59" fill="#d4c7ab" fill-opacity="0.08" />  <circle cx="1075.95" cy="396.92" r="0.99" fill="#d4c7ab" fill-opacity="0.08" />  <circle cx="541.65" cy="190.95" r="0.94" fill="#d4c7ab" fill-opacity="0.08" />  <circle cx="611.16" cy="132.03" r="0.53" fill="#d4c7ab" fill-opacity="0.08" />  <circle cx="951.87" cy="464.50" r="0.73" fill="#d4c7ab" fill-opacity="0.08" />  <circle cx="280.96" cy="266.85" r="0.57" fill="#d4c7ab" fill-opacity="0.08" />  <circle cx="950.61" cy="30.31" r="0.51" fill="#d4c7ab" fill-opacity="0.08" />  <circle cx="299.80" cy="330.48" r="0.68" fill="#d4c7ab" fill-opacity="0.08" />  <circle cx="221.84" cy="40.19" r="0.58" fill="#d4c7ab" fill-opacity="0.08" />  <circle cx="815.58" cy="165.68" r="0.48" fill="#d4c7ab" fill-opacity="0.08" />  <circle cx="126.14" cy="241.02" r="0.52" fill="#d4c7ab" fill-opacity="0.08" />  <circle cx="432.94" cy="375.80" r="1.10" fill="#d4c7ab" fill-opacity="0.08" />  <circle cx="629.24" cy="612.79" r="1" fill="#d4c7ab" fill-opacity="0.08" />  <circle cx="190.96" cy="61.91" r="0.79" fill="#d4c7ab" fill-opacity="0.08" />  <circle cx="114.03" cy="150.63" r="0.80" fill="#d4c7ab" fill-opacity="0.08" />  <circle cx="678.02" cy="596.22" r="1.11" fill="#d4c7ab" fill-opacity="0.08" />  <circle cx="77.60" cy="42.29" r="0.80" fill="#d4c7ab" fill-opacity="0.08" />  <circle cx="1071.16" cy="341.41" r="1.15" fill="#d4c7ab" fill-opacity="0.08" />  <circle cx="1136.93" cy="103.04" r="0.45" fill="#d4c7ab" fill-opacity="0.08" />  <circle cx="262.98" cy="772.01" r="0.64" fill="#d4c7ab" fill-opacity="0.08" />  <circle cx="909.19" cy="31.76" r="0.85" fill="#d4c7ab" fill-opacity="0.08" />  <circle cx="947.07" cy="683.49" r="0.59" fill="#d4c7ab" fill-opacity="0.08" />  <circle cx="903.29" cy="716.68" r="0.51" fill="#d4c7ab" fill-opacity="0.08" />  <line x1="0" y1="60" x2="1190.55" y2="60" stroke="#a8d4f0" stroke-width="1.1" stroke-opacity="0.72" />  <line x1="18" y1="60" x2="1130.55" y2="60" stroke="#ffffff" stroke-width="0.55" stroke-opacity="0.16" />  <line x1="0" y1="103.20" x2="1190.55" y2="103.20" stroke="#a8d4f0" stroke-width="1.1" stroke-opacity="0.72" />  <line x1="18" y1="103.20" x2="1130.55" y2="103.20" stroke="#ffffff" stroke-width="0.55" stroke-opacity="0.16" />  <line x1="0" y1="146.40" x2="1190.55" y2="146.40" stroke="#a8d4f0" stroke-width="1.1" stroke-opacity="0.72" />  <line x1="18" y1="146.40" x2="1130.55" y2="146.40" stroke="#ffffff" stroke-width="0.55" stroke-opacity="0.16" />  <line x1="0" y1="189.60" x2="1190.55" y2="189.60" stroke="#a8d4f0" stroke-width="1.1" stroke-opacity="0.72" />  <line x1="18" y1="189.60" x2="1130.55" y2="189.60" stroke="#ffffff" stroke-width="0.55" stroke-opacity="0.16" />  <line x1="0" y1="232.80" x2="1190.55" y2="232.80" stroke="#a8d4f0" stroke-width="1.1" stroke-opacity="0.72" />  <line x1="18" y1="232.80" x2="1130.55" y2="232.80" stroke="#ffffff" stroke-width="0.55" stroke-opacity="0.16" />  <line x1="0" y1="276" x2="1190.55" y2="276" stroke="#a8d4f0" stroke-width="1.1" stroke-opacity="0.72" />  <line x1="18" y1="276" x2="1130.55" y2="276" stroke="#ffffff" stroke-width="0.55" stroke-opacity="0.16" />  <line x1="0" y1="319.20" x2="1190.55" y2="319.20" stroke="#a8d4f0" stroke-width="1.1" stroke-opacity="0.72" />  <line x1="18" y1="319.20" x2="1130.55" y2="319.20" stroke="#ffffff" stroke-width="0.55" stroke-opacity="0.16" />  <line x1="0" y1="362.40" x2="1190.55" y2="362.40" stroke="#a8d4f0" stroke-width="1.1" stroke-opacity="0.72" />  <line x1="18" y1="362.40" x2="1130.55" y2="362.40" stroke="#ffffff" stroke-width="0.55" stroke-opacity="0.16" />  <line x1="0" y1="405.60" x2="1190.55" y2="405.60" stroke="#a8d4f0" stroke-width="1.1" stroke-opacity="0.72" />  <line x1="18" y1="405.60" x2="1130.55" y2="405.60" stroke="#ffffff" stroke-width="0.55" stroke-opacity="0.16" />  <line x1="0" y1="448.80" x2="1190.55" y2="448.80" stroke="#a8d4f0" stroke-width="1.1" stroke-opacity="0.72" />  <line x1="18" y1="448.80" x2="1130.55" y2="448.80" stroke="#ffffff" stroke-width="0.55" stroke-opacity="0.16" />  <line x1="0" y1="492" x2="1190.55" y2="492" stroke="#a8d4f0" stroke-width="1.1" stroke-opacity="0.72" />  <line x1="18" y1="492" x2="1130.55" y2="492" stroke="#ffffff" stroke-width="0.55" stroke-opacity="0.16" />  <line x1="0" y1="535.20" x2="1190.55" y2="535.20" stroke="#a8d4f0" stroke-width="1.1" stroke-opacity="0.72" />  <line x1="18" y1="535.20" x2="1130.55" y2="535.20" stroke="#ffffff" stroke-width="0.55" stroke-opacity="0.16" />  <line x1="0" y1="578.40" x2="1190.55" y2="578.40" stroke="#a8d4f0" stroke-width="1.1" stroke-opacity="0.72" />  <line x1="18" y1="578.40" x2="1130.55" y2="578.40" stroke="#ffffff" stroke-width="0.55" stroke-opacity="0.16" />  <line x1="0" y1="621.60" x2="1190.55" y2="621.60" stroke="#a8d4f0" stroke-width="1.1" stroke-opacity="0.72" />  <line x1="18" y1="621.60" x2="1130.55" y2="621.60" stroke="#ffffff" stroke-width="0.55" stroke-opacity="0.16" />  <line x1="0" y1="664.80" x2="1190.55" y2="664.80" stroke="#a8d4f0" stroke-width="1.1" stroke-opacity="0.72" />  <line x1="18" y1="664.80" x2="1130.55" y2="664.80" stroke="#ffffff" stroke-width="0.55" stroke-opacity="0.16" />  <line x1="0" y1="708" x2="1190.55" y2="708" stroke="#a8d4f0" stroke-width="1.1" stroke-opacity="0.72" />  <line x1="18" y1="708" x2="1130.55" y2="708" stroke="#ffffff" stroke-width="0.55" stroke-opacity="0.16" />  <line x1="0" y1="751.20" x2="1190.55" y2="751.20" stroke="#a8d4f0" stroke-width="1.1" stroke-opacity="0.72" />  <line x1="18" y1="751.20" x2="1130.55" y2="751.20" stroke="#ffffff" stroke-width="0.55" stroke-opacity="0.16" />  <line x1="0" y1="794.40" x2="1190.55" y2="794.40" stroke="#a8d4f0" stroke-width="1.1" stroke-opacity="0.72" />  <line x1="18" y1="794.40" x2="1130.55" y2="794.40" stroke="#ffffff" stroke-width="0.55" stroke-opacity="0.16" />  <line x1="50" y1="44.88" x2="50" y2="801.33" stroke="#e6a1a8" stroke-width="1.6" stroke-opacity="0.9" />  <line x1="51.60" y1="44.88" x2="51.60" y2="801.33" stroke="#f7d9dd" stroke-width="0.8" stroke-opacity="0.7" /></svg>
