<svg xmlns="http://www.w3.org/2000/svg" viewBox="0 0 792 612" width="792" height="612"><defs>  <linearGradient id="paper-wash" x1="0" y1="0" x2="0" y2="1">    <stop offset="0%" stop-color="#ffffff" stop-opacity="0.38" />    <stop offset="18%" stop-color="#ffffff" stop-opacity="0.10" />    <stop offset="100%" stop-color="#efe6cf" stop-opacity="0.14" />  </linearGradient>  <linearGradient id="edge-tone" x1="0" y1="0" x2="1" y2="0">    <stop offset="0%" stop-color="#dccfb4" stop-opacity="0.18" />    <stop offset="6%" stop-color="#dccfb4" stop-opacity="0.05" />    <stop offset="94%" stop-color="#dccfb4" stop-opacity="0.05" />    <stop offset="100%" stop-color="#dccfb4" stop-opacity="0.18" />  </linearGradient></defs>  <rect width="792" height="612" fill="#fffef5" />  <rect width="792" height="612" fill="url(#paper-wash)" />  <rect width="792" height="612" fill="url(#edge-tone)" opacity="0.55" />  <rect x="0" y="0" width="100%" height="22" fill="#fff7de" opacity="0.35" />  <line x1="709.94" y1="51.28" x2="713.43" y2="59.60" stroke="#d4c7ab" stroke-width="0.7" stroke-opacity="0.11" stroke-linecap="round" />  <line x1="302" y1="279.24" x2="310.36" y2="284.03" stroke="#d4c7ab" stroke-width="0.7" stroke-opacity="0.11" stroke-linecap="round" />  <line x1="147.03" y1="207.69" x2="138.21" y2="208.48" stroke="#d4c7ab" stroke-width="0.7" stroke-opacity="0.11" stroke-linecap="round" />  <line x1="747.03" y1="490.77" x2="741.42" y2="490.86" stroke="#d4c7ab" stroke-width="0.7" stroke-opacity="0.11" stroke-linecap="round" />  <line x1="764.65" y1="487.80" x2="756.88" y2="489.62" stroke="#d4c7ab" stroke-width="0.7" stroke-opacity="0.11" stroke-linecap="round" />  <line x1="713.80" y1="268.14" x2="718.98" y2="276.46" stroke="#d4c7ab" stroke-width="0.7" stroke-opacity="0.11" stroke-linecap="round" />  <line x1="263.96" y1="455.79" x2="259.60" y2="463.67" stroke="#d4c7ab" stroke-width="0.7" stroke-opacity="0.11" stroke-linecap="round" />  <line x1="515.77" y1="259.60" x2="518.42" y2="264.10" stroke="#d4c7ab" stroke-width="0.7" stroke-opacity="0.11" stroke-linecap="round" />  <line x1="269.79" y1="303.31" x2="273.28" y2="305.26" stroke="#d4c7ab" stroke-width="0.7" stroke-opacity="0.11" stroke-linecap="round" />  <line x1="144.30" y1="260.09" x2="135.99" y2="269.91" stroke="#d4c7ab" stroke-width="0.7" stroke-opacity="0.11" stroke-linecap="round" />  <line x1="562.32" y1="182.72" x2="568.59" y2="187.29" stroke="#d4c7ab" stroke-width="0.7" stroke-opacity="0.11" stroke-linecap="round" />  <line x1="173.10" y1="349.68" x2="160.66" y2="352.85" stroke="#d4c7ab" stroke-width="0.7" stroke-opacity="0.11" stroke-linecap="round" />  <line x1="709.10" y1="288.90" x2="705.84" y2="299.32" stroke="#d4c7ab" stroke-width="0.7" stroke-opacity="0.11" stroke-linecap="round" />  <line x1="467.96" y1="555.82" x2="474.25" y2="560.88" stroke="#d4c7ab" stroke-width="0.7" stroke-opacity="0.11" stroke-linecap="round" />  <line x1="184.14" y1="418.02" x2="191.17" y2="426.69" stroke="#d4c7ab" stroke-width="0.7" stroke-opacity="0.11" stroke-linecap="round" />  <line x1="234.59" y1="314" x2="239.53" y2="315.86" stroke="#d4c7ab" stroke-width="0.7" stroke-opacity="0.11" stroke-linecap="round" />  <line x1="108.92" y1="192.21" x2="104.73" y2="195.02" stroke="#d4c7ab" stroke-width="0.7" stroke-opacity="0.11" stroke-linecap="round" />  <line x1="628.28" y1="337" x2="621.24" y2="339.97" stroke="#d4c7ab" stroke-width="0.7" stroke-opacity="0.11" stroke-linecap="round" />  <circle cx="141.73" cy="205.60" r="0.83" fill="#d4c7ab" fill-opacity="0.08" />  <circle cx="151.97" cy="596.92" r="1.02" fill="#d4c7ab" fill-opacity="0.08" />  <circle cx="345.97" cy="390.71" r="0.68" fill="#d4c7ab" fill-opacity="0.08" />  <circle cx="518.32" cy="258.61" r="0.55" fill="#d4c7ab" fill-opacity="0.08" />  <circle cx="16.08" cy="107.36" r="0.74" fill="#d4c7ab" fill-opacity="0.08" />  <circle cx="233.06" cy="257.85" r="0.59" fill="#d4c7ab" fill-opacity="0.08" />  <circle cx="715.77" cy="288.54" r="0.99" fill="#d4c7ab" fill-opacity="0.08" />  <circle cx="360.33" cy="138.81" r="0.94" fill="#d4c7ab" fill-opacity="0.08" />  <circle cx="406.57" cy="95.98" r="0.53" fill="#d4c7ab" fill-opacity="0.08" />  <circle cx="633.22" cy="337.66" r="0.73" fill="#d4c7ab" fill-opacity="0.08" />  <circle cx="186.91" cy="193.98" r="0.57" fill="#d4c7ab" fill-opacity="0.08" />  <circle cx="632.38" cy="22.03" r="0.51" fill="#d4c7ab" fill-opacity="0.08" />  <circle cx="199.44" cy="240.24" r="0.68" fill="#d4c7ab" fill-opacity="0.08" />  <circle cx="147.58" cy="29.21" r="0.58" fill="#d4c7ab" fill-opacity="0.08" />  <circle cx="542.56" cy="120.44" r="0.48" fill="#d4c7ab" fill-opacity="0.08" />  <circle cx="83.91" cy="175.20" r="0.52" fill="#d4c7ab" fill-opacity="0.08" />  <circle cx="288.01" cy="273.18" r="1.10" fill="#d4c7ab" fill-opacity="0.08" />  <circle cx="418.60" cy="445.46" r="1" fill="#d4c7ab" fill-opacity="0.08" />  <circle cx="127.04" cy="45.01" r="0.79" fill="#d4c7ab" fill-opacity="0.08" />  <circle cx="75.86" cy="109.50" r="0.80" fill="#d4c7ab" fill-opacity="0.08" />  <circle cx="451.05" cy="433.41" r="1.11" fill="#d4c7ab" fill-opacity="0.08" />  <circle cx="51.62" cy="30.74" r="0.80" fill="#d4c7ab" fill-opacity="0.08" />  <circle cx="712.58" cy="248.18" r="1.15" fill="#d4c7ab" fill-opacity="0.08" />  <circle cx="756.33" cy="74.90" r="0.45" fill="#d4c7ab" fill-opacity="0.08" />  <circle cx="174.95" cy="561.20" r="0.64" fill="#d4c7ab" fill-opacity="0.08" />  <circle cx="604.83" cy="23.09" r="0.85" fill="#d4c7ab" fill-opacity="0.08" />  <circle cx="630.03" cy="496.85" r="0.59" fill="#d4c7ab" fill-opacity="0.08" />  <circle cx="600.90" cy="520.98" r="0.51" fill="#d4c7ab" fill-opacity="0.08" />  <line x1="0" y1="60" x2="792" y2="60" stroke="#a8d4f0" stroke-width="1.1" stroke-opacity="0.72" />  <line x1="18" y1="60" x2="732" y2="60" stroke="#ffffff" stroke-width="0.55" stroke-opacity="0.16" />  <line x1="0" y1="103.20" x2="792" y2="103.20" stroke="#a8d4f0" stroke-width="1.1" stroke-opacity="0.72" />  <line x1="18" y1="103.20" x2="732" y2="103.20" stroke="#ffffff" stroke-width="0.55" stroke-opacity="0.16" />  <line x1="0" y1="146.40" x2="792" y2="146.40" stroke="#a8d4f0" stroke-width="1.1" stroke-opacity="0.72" />  <line x1="18" y1="146.40" x2="732" y2="146.40" stroke="#ffffff" stroke-width="0.55" stroke-opacity="0.16" />  <line x1="0" y1="189.60" x2="792" y2="189.60" stroke="#a8d4f0" stroke-width="1.1" stroke-opacity="0.72" />  <line x1="18" y1="189.60" x2="732" y2="189.60" stroke="#ffffff" stroke-width="0.55" stroke-opacity="0.16" />  <line x1="0" y1="232.80" x2="792" y2="232.80" stroke="#a8d4f0" stroke-width="1.1" stroke-opacity="0.72" />  <line x1="18" y1="232.80" x2="732" y2="232.80" stroke="#ffffff" stroke-width="0.55" stroke-opacity="0.16" />  <line x1="0" y1="276" x2="792" y2="276" stroke="#a8d4f0" stroke-width="1.1" stroke-opacity="0.72" />  <line x1="18" y1="276" x2="732" y2="276" stroke="#ffffff" stroke-width="0.55" stroke-opacity="0.16" />  <line x1="0" y1="319.20" x2="792" y2="319.20" stroke="#a8d4f0" stroke-width="1.1" stroke-opacity="0.72" />  <line x1="18" y1="319.20" x2="732" y2="319.20" stroke="#ffffff" stroke-width="0.55" stroke-opacity="0.16" />  <line x1="0" y1="362.40" x2="792" y2="362.40" stroke="#a8d4f0" stroke-width="1.1" stroke-opacity="0.72" />  <line x1="18" y1="362.40" x2="732" y2="362.40" stroke="#ffffff" stroke-width="0.55" stroke-opacity="0.16" />  <line x1="0" y1="405.60" x2="792" y2="405.60" stroke="#a8d4f0" stroke-width="1.1" stroke-opacity="0.72" />  <line x1="18" y1="405.60" x2="732" y2="405.60" stroke="#ffffff" stroke-width="0.55" stroke-opacity="0.16" />  <line x1="0" y1="448.80" x2="792" y2="448.80" stroke="#a8d4f0" stroke-width="1.1" stroke-opacity="0.72" />  <line x1="18" y1="448.80" x2="732" y2="448.80" stroke="#ffffff" stroke-width="0.55" stroke-opacity="0.16" />  <line x1="0" y1="492" x2="792" y2="492" stroke="#a8d4f0" stroke-width="1.1" stroke-opacity="0.72" />  <line x1="18" y1="492" x2="732" y2="492" stroke="#ffffff" stroke-width="0.55" stroke-opacity="0.16" />  <line x1="0" y1="535.20" x2="792" y2="535.20" stroke="#a8d4f0" stroke-width="1.1" stroke-opacity="0.72" />  <line x1="18" y1="535.20" x2="732" y2="535.20" stroke="#ffffff" stroke-width="0.55" stroke-opacity="0.16" />  <line x1="0" y1="578.40" x2="792" y2="578.40" stroke="#a8d4f0" stroke-width="1.1" stroke-opacity="0.72" />  <line x1="18" y1="578.40" x2="732" y2="578.40" stroke="#ffffff" stroke-width="0.55" stroke-opacity="0.16" />  <line x1="50" y1="44.88" x2="50" y2="571.44" stroke="#e6a1a8" stroke-width="1.6" stroke-opacity="0.9" />  <line x1="51.60" y1="44.88" x2="51.60" y2="571.44" stroke="#f7d9dd" stroke-width="0.8" stroke-opacity="0.7" /></svg>
