<svg xmlns="http://www.w3.org/2000/svg" viewBox="0 0 1190.55 841.89" width="1190.55" height="841.89" shape-rendering="geometricPrecision">  <rect width="1190.55" height="841.89" fill="#ffffff" />  <line x1="0" y1="85" x2="1190.55" y2="85" stroke="#a9becd" stroke-width="1.20" stroke-opacity="0.85" />  <line x1="0" y1="119.02" x2="1190.55" y2="119.02" stroke="#a9becd" stroke-width="1.20" stroke-opacity="0.85" />  <line x1="0" y1="153.04" x2="1190.55" y2="153.04" stroke="#a9becd" stroke-width="1.20" stroke-opacity="0.85" />  <line x1="0" y1="187.06" x2="1190.55" y2="187.06" stroke="#a9becd" stroke-width="1.20" stroke-opacity="0.85" />  <line x1="0" y1="221.08" x2="1190.55" y2="221.08" stroke="#a9becd" stroke-width="1.20" stroke-opacity="0.85" />  <line x1="0" y1="255.10" x2="1190.55" y2="255.10" stroke="#a9becd" stroke-width="1.20" stroke-opacity="0.85" />  <line x1="0" y1="289.12" x2="1190.55" y2="289.12" stroke="#a9becd" stroke-width="1.20" stroke-opacity="0.85" />  <line x1="0" y1="323.14" x2="1190.55" y2="323.14" stroke="#a9becd" stroke-width="1.20" stroke-opacity="0.85" />  <line x1="0" y1="357.16" x2="1190.55" y2="357.16" stroke="#a9becd" stroke-width="1.20" stroke-opacity="0.85" />  <line x1="0" y1="391.18" x2="1190.55" y2="391.18" stroke="#a9becd" stroke-width="1.20" stroke-opacity="0.85" />  <line x1="0" y1="425.20" x2="1190.55" y2="425.20" stroke="#a9becd" stroke-width="1.20" stroke-opacity="0.85" />  <line x1="0" y1="459.22" x2="1190.55" y2="459.22" stroke="#a9becd" stroke-width="1.20" stroke-opacity="0.85" />  <line x1="0" y1="493.24" x2="1190.55" y2="493.24" stroke="#a9becd" stroke-width="1.20" stroke-opacity="0.85" />  <line x1="0" y1="527.26" x2="1190.55" y2="527.26" stroke="#a9becd" stroke-width="1.20" stroke-opacity="0.85" />  <line x1="0" y1="561.28" x2="1190.55" y2="561.28" stroke="#a9becd" stroke-width="1.20" stroke-opacity="0.85" />  <line x1="0" y1="595.30" x2="1190.55" y2="595.30" stroke="#a9becd" stroke-width="1.20" stroke-opacity="0.85" />  <line x1="0" y1="629.32" x2="1190.55" y2="629.32" stroke="#a9becd" stroke-width="1.20" stroke-opacity="0.85" />  <line x1="0" y1="663.34" x2="1190.55" y2="663.34" stroke="#a9becd" stroke-width="1.20" stroke-opacity="0.85" />  <line x1="0" y1="697.36" x2="1190.55" y2="697.36" stroke="#a9becd" stroke-width="1.20" stroke-opacity="0.85" />  <line x1="0" y1="731.38" x2="1190.55" y2="731.38" stroke="#a9becd" stroke-width="1.20" stroke-opacity="0.85" />  <line x1="0" y1="765.40" x2="1190.55" y2="765.40" stroke="#a9becd" stroke-width="1.20" stroke-opacity="0.85" />  <line x1="0" y1="799.42" x2="1190.55" y2="799.42" stroke="#a9becd" stroke-width="1.20" stroke-opacity="0.85" /></svg>