<svg xmlns="http://www.w3.org/2000/svg" viewBox="0 0 792 612" width="792" height="612" shape-rendering="geometricPrecision">  <rect width="792" height="612" fill="#ffffff" />  <line x1="0" y1="90" x2="792" y2="90" stroke="#a9becd" stroke-width="1.20" stroke-opacity="0.85" />  <line x1="0" y1="120.38" x2="792" y2="120.38" stroke="#a9becd" stroke-width="1.20" stroke-opacity="0.85" />  <line x1="0" y1="150.75" x2="792" y2="150.75" stroke="#a9becd" stroke-width="1.20" stroke-opacity="0.85" />  <line x1="0" y1="181.13" x2="792" y2="181.13" stroke="#a9becd" stroke-width="1.20" stroke-opacity="0.85" />  <line x1="0" y1="211.50" x2="792" y2="211.50" stroke="#a9becd" stroke-width="1.20" stroke-opacity="0.85" />  <line x1="0" y1="241.88" x2="792" y2="241.88" stroke="#a9becd" stroke-width="1.20" stroke-opacity="0.85" />  <line x1="0" y1="272.25" x2="792" y2="272.25" stroke="#a9becd" stroke-width="1.20" stroke-opacity="0.85" />  <line x1="0" y1="302.63" x2="792" y2="302.63" stroke="#a9becd" stroke-width="1.20" stroke-opacity="0.85" />  <line x1="0" y1="333" x2="792" y2="333" stroke="#a9becd" stroke-width="1.20" stroke-opacity="0.85" />  <line x1="0" y1="363.38" x2="792" y2="363.38" stroke="#a9becd" stroke-width="1.20" stroke-opacity="0.85" />  <line x1="0" y1="393.75" x2="792" y2="393.75" stroke="#a9becd" stroke-width="1.20" stroke-opacity="0.85" />  <line x1="0" y1="424.13" x2="792" y2="424.13" stroke="#a9becd" stroke-width="1.20" stroke-opacity="0.85" />  <line x1="0" y1="454.50" x2="792" y2="454.50" stroke="#a9becd" stroke-width="1.20" stroke-opacity="0.85" />  <line x1="0" y1="484.88" x2="792" y2="484.88" stroke="#a9becd" stroke-width="1.20" stroke-opacity="0.85" />  <line x1="0" y1="515.25" x2="792" y2="515.25" stroke="#a9becd" stroke-width="1.20" stroke-opacity="0.85" />  <line x1="0" y1="545.63" x2="792" y2="545.63" stroke="#a9becd" stroke-width="1.20" stroke-opacity="0.85" />  <line x1="0" y1="576" x2="792" y2="576" stroke="#a9becd" stroke-width="1.20" stroke-opacity="0.85" /></svg>